<svg xmlns="http://www.w3.org/2000/svg" xmlns:xlink="http://www.w3.org/1999/xlink" width="500" zoomAndPan="magnify" viewBox="0 0 375 374.999991" height="500" preserveAspectRatio="xMidYMid meet" version="1.2"><defs><clipPath id="9883d85585"><path d="M 81.121094 45.835938 L 294 45.835938 L 294 329.335938 L 81.121094 329.335938 Z M 81.121094 45.835938 "/></clipPath></defs><g id="e9f5ca4b95"><rect x="0" width="375" y="0" height="374.999991" style="fill:#ffffff;fill-opacity:1;stroke:none;"/><rect x="0" width="375" y="0" height="374.999991" style="fill:#ffffff;fill-opacity:1;stroke:none;"/><g clip-rule="nonzero" clip-path="url(#9883d85585)"><path style=" stroke:none;fill-rule:nonzero;fill:#f87315;fill-opacity:1;" d="M 293.472656 49.996094 C 293.472656 49.972656 293.460938 49.953125 293.460938 49.941406 C 293.417969 49.648438 293.351562 49.378906 293.265625 49.097656 C 293.253906 49.074219 293.253906 49.0625 293.253906 49.042969 C 293.253906 49.03125 293.246094 49.03125 293.246094 49.019531 C 293.148438 48.75 293.027344 48.488281 292.875 48.230469 C 292.855469 48.1875 292.832031 48.152344 292.800781 48.109375 C 292.648438 47.871094 292.488281 47.644531 292.300781 47.4375 C 292.28125 47.417969 292.257812 47.394531 292.246094 47.382812 C 292.0625 47.179688 291.847656 46.996094 291.628906 46.820312 C 291.621094 46.808594 291.609375 46.808594 291.609375 46.800781 C 291.585938 46.777344 291.566406 46.757812 291.542969 46.746094 C 291.328125 46.59375 291.097656 46.464844 290.859375 46.34375 C 290.851562 46.332031 290.828125 46.332031 290.816406 46.324219 C 290.277344 46.0625 289.703125 45.910156 289.105469 45.867188 C 289.09375 45.867188 289.082031 45.867188 289.0625 45.867188 C 288.769531 45.847656 288.476562 45.855469 288.195312 45.890625 C 288.164062 45.890625 288.121094 45.898438 288.085938 45.898438 C 287.804688 45.945312 287.523438 45.996094 287.253906 46.09375 L 287.21875 46.105469 C 287.21875 46.105469 287.210938 46.105469 287.210938 46.105469 C 287.1875 46.117188 287.164062 46.128906 287.144531 46.128906 L 239.183594 62.242188 C 205.816406 73.445312 169.191406 73.445312 135.828125 62.242188 L 87.917969 46.136719 C 87.886719 46.128906 87.84375 46.117188 87.824219 46.105469 C 87.8125 46.105469 87.8125 46.105469 87.800781 46.105469 L 87.757812 46.085938 C 87.496094 45.996094 87.226562 45.945312 86.964844 45.898438 C 86.921875 45.890625 86.878906 45.890625 86.835938 45.878906 C 86.542969 45.847656 86.25 45.835938 85.96875 45.847656 C 85.957031 45.847656 85.949219 45.847656 85.9375 45.847656 C 85.339844 45.890625 84.765625 46.039062 84.226562 46.289062 C 84.203125 46.300781 84.179688 46.3125 84.160156 46.324219 C 83.921875 46.441406 83.683594 46.570312 83.464844 46.734375 C 83.445312 46.746094 83.433594 46.765625 83.410156 46.777344 C 83.410156 46.777344 83.402344 46.789062 83.402344 46.789062 C 83.171875 46.953125 82.96875 47.144531 82.785156 47.339844 C 82.75 47.375 82.730469 47.394531 82.695312 47.429688 C 82.511719 47.632812 82.351562 47.851562 82.210938 48.089844 C 82.175781 48.132812 82.15625 48.175781 82.132812 48.21875 C 81.980469 48.46875 81.863281 48.726562 81.765625 49 C 81.765625 49.011719 81.753906 49.011719 81.753906 49.019531 C 81.753906 49.03125 81.742188 49.054688 81.742188 49.074219 C 81.65625 49.347656 81.582031 49.617188 81.546875 49.898438 C 81.546875 49.929688 81.539062 49.964844 81.527344 49.984375 C 81.503906 50.179688 81.484375 50.386719 81.484375 50.601562 L 81.484375 227.515625 C 81.484375 275.53125 116.90625 291.96875 148.160156 306.46875 C 162.320312 313.046875 175.703125 319.246094 184.113281 327.761719 C 185 328.660156 186.226562 329.171875 187.492188 329.171875 C 188.761719 329.171875 189.988281 328.660156 190.875 327.761719 C 199.292969 319.253906 212.667969 313.046875 226.828125 306.46875 C 258.082031 291.96875 293.503906 275.53125 293.503906 227.515625 L 293.503906 50.601562 C 293.515625 50.398438 293.503906 50.191406 293.472656 49.996094 Z M 235.28125 73.414062 C 216.992188 86.308594 198.167969 104.003906 186.691406 127 C 175.128906 103.710938 156.253906 85.863281 138.070312 72.925781 C 169.636719 82.398438 203.640625 82.558594 235.28125 73.414062 Z M 91.007812 227.503906 L 91.007812 190.21875 C 105.085938 196.15625 144.832031 219.507812 143.078125 293.550781 C 116.136719 280.679688 91.007812 265.214844 91.007812 227.503906 Z M 187.503906 317.910156 C 178.164062 309.914062 165.636719 304.074219 152.449219 297.949219 C 156.273438 208.59375 103.425781 184.464844 91.007812 180.050781 L 91.007812 57.636719 C 109.667969 65.601562 164.164062 92.441406 182.238281 140.542969 C 182.261719 140.597656 182.292969 140.652344 182.3125 140.707031 C 182.359375 140.804688 182.402344 140.890625 182.445312 140.988281 C 182.53125 141.160156 182.628906 141.324219 182.726562 141.476562 C 182.78125 141.550781 182.824219 141.628906 182.878906 141.703125 C 183.019531 141.886719 183.171875 142.070312 183.332031 142.234375 C 183.367188 142.265625 183.386719 142.300781 183.429688 142.332031 C 183.636719 142.527344 183.863281 142.699219 184.089844 142.851562 C 184.15625 142.894531 184.222656 142.929688 184.277344 142.960938 C 184.472656 143.078125 184.675781 143.175781 184.882812 143.265625 C 184.925781 143.285156 184.957031 143.308594 185 143.316406 C 185.035156 143.328125 185.066406 143.339844 185.109375 143.351562 C 185.292969 143.414062 185.488281 143.46875 185.683594 143.511719 C 185.75 143.523438 185.824219 143.546875 185.890625 143.554688 C 186.148438 143.601562 186.410156 143.632812 186.679688 143.632812 C 186.953125 143.632812 187.210938 143.601562 187.472656 143.554688 C 187.539062 143.546875 187.613281 143.523438 187.679688 143.511719 C 187.875 143.46875 188.070312 143.414062 188.253906 143.351562 C 188.285156 143.339844 188.316406 143.339844 188.351562 143.316406 C 188.394531 143.308594 188.425781 143.273438 188.46875 143.265625 C 188.6875 143.175781 188.890625 143.078125 189.085938 142.960938 C 189.152344 142.929688 189.207031 142.894531 189.269531 142.851562 C 189.507812 142.699219 189.738281 142.527344 189.941406 142.332031 C 189.964844 142.308594 189.988281 142.277344 190.007812 142.257812 C 190.179688 142.082031 190.34375 141.898438 190.496094 141.691406 C 190.550781 141.628906 190.59375 141.550781 190.636719 141.488281 C 190.746094 141.324219 190.84375 141.152344 190.929688 140.976562 C 190.972656 140.890625 191.015625 140.804688 191.058594 140.707031 C 191.082031 140.652344 191.113281 140.597656 191.136719 140.542969 C 209.253906 92.324219 265.101562 65.460938 283.992188 57.582031 L 283.992188 179.585938 C 275.039062 182.4375 216.847656 204.652344 221.152344 298.613281 C 208.484375 304.496094 196.511719 310.195312 187.503906 317.910156 Z M 230.515625 294.234375 C 228.367188 216.167969 271.246094 194.34375 283.992188 189.589844 L 283.992188 227.503906 C 283.992188 265.875 257.972656 281.210938 230.515625 294.234375 Z M 130.277344 97.632812 C 111.28125 97.632812 95.832031 113.085938 95.832031 132.082031 C 95.832031 151.078125 111.28125 166.539062 130.277344 166.539062 C 149.273438 166.539062 164.738281 151.085938 164.738281 132.082031 C 164.726562 113.09375 149.273438 97.632812 130.277344 97.632812 Z M 130.277344 157.027344 C 116.527344 157.027344 105.34375 145.84375 105.34375 132.089844 C 105.34375 118.339844 116.527344 107.15625 130.277344 107.15625 C 144.03125 107.15625 155.214844 118.339844 155.214844 132.089844 C 155.214844 145.84375 144.03125 157.027344 130.277344 157.027344 Z M 141.300781 132.089844 C 141.300781 138.179688 136.367188 143.113281 130.277344 143.113281 C 124.1875 143.113281 119.257812 138.171875 119.257812 132.089844 C 119.257812 126.011719 124.1875 121.070312 130.277344 121.070312 C 136.367188 121.070312 141.300781 126 141.300781 132.089844 Z M 279.417969 132.089844 C 279.417969 113.09375 263.964844 97.644531 244.96875 97.644531 C 225.972656 97.644531 210.519531 113.09375 210.519531 132.089844 C 210.519531 151.085938 225.972656 166.550781 244.96875 166.550781 C 263.964844 166.539062 279.417969 151.085938 279.417969 132.089844 Z M 220.035156 132.089844 C 220.035156 118.339844 231.21875 107.15625 244.96875 107.15625 C 258.71875 107.15625 269.902344 118.339844 269.902344 132.089844 C 269.902344 145.84375 258.71875 157.027344 244.96875 157.027344 C 231.21875 157.027344 220.035156 145.84375 220.035156 132.089844 Z M 244.957031 143.113281 C 238.867188 143.113281 233.9375 138.179688 233.9375 132.089844 C 233.9375 126 238.867188 121.070312 244.957031 121.070312 C 251.046875 121.070312 255.980469 126 255.980469 132.089844 C 255.980469 138.179688 251.046875 143.113281 244.957031 143.113281 Z M 191.449219 278.859375 L 191.449219 293.703125 C 191.449219 296.335938 189.316406 298.460938 186.691406 298.460938 C 184.070312 298.460938 181.933594 296.324219 181.933594 293.703125 L 181.933594 278.859375 C 181.933594 276.222656 184.070312 274.101562 186.691406 274.101562 C 189.316406 274.101562 191.449219 276.234375 191.449219 278.859375 Z M 168.164062 217.046875 L 168.164062 231.894531 C 168.164062 234.527344 166.027344 236.648438 163.40625 236.648438 C 160.773438 236.648438 158.648438 234.515625 158.648438 231.894531 L 158.648438 217.046875 C 158.648438 214.414062 160.78125 212.289062 163.40625 212.289062 C 166.027344 212.28125 168.164062 214.414062 168.164062 217.046875 Z M 191.449219 217.046875 L 191.449219 231.894531 C 191.449219 234.527344 189.316406 236.648438 186.691406 236.648438 C 184.070312 236.648438 181.933594 234.515625 181.933594 231.894531 L 181.933594 217.046875 C 181.933594 214.414062 184.070312 212.289062 186.691406 212.289062 C 189.316406 212.289062 191.449219 214.414062 191.449219 217.046875 Z M 214.726562 217.046875 L 214.726562 231.894531 C 214.726562 234.527344 212.589844 236.648438 209.96875 236.648438 C 207.347656 236.648438 205.210938 234.515625 205.210938 231.894531 L 205.210938 217.046875 C 205.210938 214.414062 207.347656 212.289062 209.96875 212.289062 C 212.589844 212.289062 214.726562 214.414062 214.726562 217.046875 Z M 179.800781 248.417969 L 179.800781 263.265625 C 179.800781 265.898438 177.664062 268.019531 175.042969 268.019531 C 172.421875 268.019531 170.285156 265.886719 170.285156 263.265625 L 170.285156 248.417969 C 170.285156 245.785156 172.421875 243.660156 175.042969 243.660156 C 177.664062 243.660156 179.800781 245.796875 179.800781 248.417969 Z M 203.085938 248.417969 L 203.085938 263.265625 C 203.085938 265.898438 200.953125 268.019531 198.332031 268.019531 C 195.707031 268.019531 193.574219 265.886719 193.574219 263.265625 L 193.574219 248.417969 C 193.574219 245.785156 195.707031 243.660156 198.332031 243.660156 C 200.953125 243.660156 203.085938 245.796875 203.085938 248.417969 Z M 187.492188 185.546875 L 175.453125 162.304688 L 199.523438 162.304688 Z M 187.492188 185.546875 "/></g></g></svg>